<svg width="150" height="150" viewBox="0 0 150 150" fill="none" xmlns="http://www.w3.org/2000/svg">
<g clip-path="url(#clip0_41_65)">
<path d="M123.914 150H66.8201C65.5545 150 64.5467 148.992 64.5467 147.727V126.516C52.1014 128.602 43.0779 127.641 37.7576 123.633C36.0936 122.367 34.8045 120.82 33.8904 119.016C33.1404 117.516 32.6717 115.852 32.4842 114.07C32.2264 111.469 32.6014 109.102 32.9529 107.602L28.9217 104.602C28.242 104.11 27.8436 103.242 27.9608 102.422C28.0779 101.602 28.5936 100.852 29.367 100.57L34.7342 98.6955L29.9998 97.8986C29.4139 97.8517 28.8279 97.5939 28.3826 97.1955C27.7732 96.633 27.4217 95.883 27.4217 95.0861V86.5314H20.4373C19.4764 86.5314 18.5623 86.1799 17.8592 85.5236C16.6404 84.3752 16.2889 82.5939 16.9686 81.0705L27.2342 58.758C26.7654 57.4455 26.3904 56.0861 26.0623 54.7033C23.2264 42.4221 27.0467 28.8517 36.2811 18.3986C56.8358 -4.85138 82.2654 -1.14825 95.6014 3.11737C119.812 10.8517 135.258 34.5471 133.172 60.7502C131.508 81.4221 124.758 92.7424 122.812 95.6252L126.164 147.539C126.211 148.172 125.976 148.781 125.554 149.25C125.133 149.742 124.523 150 123.914 150ZM69.0936 145.453H121.5L118.242 95.1564C118.195 94.5939 118.383 94.0549 118.711 93.6096C118.781 93.5158 126.89 82.6877 128.648 60.3986C130.57 36.3517 116.414 14.5783 94.242 7.50019C81.9607 3.56269 58.5467 0.164248 39.7029 21.4689C31.4295 30.8205 28.0076 42.8674 30.5154 53.7424C30.8436 55.2424 31.2889 56.7189 31.8279 58.1017C32.0389 58.6642 32.0389 59.3205 31.7811 59.8596L21.5623 82.0314H28.617C29.9529 82.0314 31.1717 82.8283 31.7107 84.0471C31.7576 84.1642 31.8045 84.3049 31.8279 84.4221C31.9451 84.7736 31.992 85.1017 31.992 85.4064V93.6799L44.2498 95.7189C45.2811 95.883 46.0545 96.7267 46.1483 97.7814C46.242 98.8127 45.6092 99.7736 44.6248 100.125L34.9686 103.477L36.7264 104.789C37.617 105.399 38.0154 106.57 37.6873 107.649C37.5233 108.188 36.7264 110.766 37.0311 113.649C37.1483 114.891 37.4764 116.016 37.992 117.024C38.5779 118.219 39.4217 119.203 40.5233 120.024C45.0467 123.422 53.9295 123.961 66.2108 121.617C66.867 121.5 67.6639 121.641 68.2029 122.063C68.742 122.485 69.1404 123.117 69.1404 123.797V145.453H69.0936ZM33.9842 108.399C34.0076 108.422 34.0311 108.445 34.0545 108.445L33.9842 108.399Z" fill="#02539A"/>
<path d="M59.5779 47.5076C58.406 47.5076 57.3982 46.5935 57.3045 45.4216C56.906 40.3591 52.5466 39.7966 52.0545 39.7498C50.8123 39.6326 49.8982 38.531 49.992 37.2888C50.1091 36.0467 51.2107 35.1326 52.4295 35.2263C55.4295 35.4607 61.2654 37.8045 61.8279 45.0701C61.9216 46.3123 60.9841 47.4138 59.742 47.5076C59.6951 47.5076 59.6482 47.5076 59.5779 47.5076Z" fill="#3BBEEE"/>
<path d="M95.9297 76.7344H88.7344C88.0547 76.7344 87.4219 76.4297 86.9766 75.9141C86.5547 75.3984 86.3672 74.7188 86.4844 74.0391C86.5078 73.875 87.1875 69.7734 84.3281 66.1641C83.0391 64.5234 81.2109 63.2344 78.9141 62.2734C76.2891 61.1953 73.3594 60.7734 70.2187 60.9609C52.2891 62.1328 51.1641 62.0859 50.7187 62.0625C47.4141 62.0625 44.1797 60.7969 41.6953 58.4766C38.9531 55.9453 37.3594 52.3359 37.3359 48.5859C37.3359 44.9766 38.7891 41.5781 41.3906 39C43.5703 36.8672 46.2891 35.5313 49.1953 35.1563C49.0312 34.2188 48.9609 33.2578 49.0078 32.25C49.3359 25.2422 55.5938 19.6172 62.5781 19.8047C62.9063 19.8047 63.2344 19.8516 63.5859 19.875C66.4219 16.0078 70.9687 13.6641 75.8203 13.6641C80.4844 13.6641 84.8203 15.75 87.7031 19.4062C90.5391 17.4375 94.0078 16.5234 97.5703 16.9219C101.414 17.3437 105 19.3594 107.414 22.4531C109.219 24.75 110.25 27.4922 110.437 30.3281C110.508 31.0781 110.508 31.8281 110.437 32.5781C110.461 32.5781 110.484 32.6016 110.484 32.6016C112.359 33.6094 114.094 35.0625 115.477 36.7969C118.242 40.2891 119.438 44.6953 118.828 49.1719C117.844 56.3437 111.891 62.1562 104.648 63.0234C104.602 63.0234 104.555 63.0469 104.508 63.0469C103.898 63.1172 103.336 63.2578 102.82 63.4453C102.75 63.4687 102.703 63.4922 102.633 63.5156C102.422 63.5859 102.187 63.6797 101.977 63.7969C101.555 64.0078 101.109 64.2656 100.758 64.5469C100.711 64.5938 100.57 64.7109 100.523 64.7578C99.2344 65.8359 98.4609 67.2656 98.2734 68.9062C98.1094 70.4062 98.0859 72.2109 98.1797 74.3906C98.2031 75 97.9687 75.6094 97.5469 76.0547C97.1484 76.5 96.5625 76.7344 95.9297 76.7344ZM91.1016 72.1875H93.6094C93.6094 70.7812 93.6563 69.5391 93.7969 68.4141C94.0781 65.625 95.4609 63.0937 97.6406 61.2656C97.6641 61.2187 97.8516 61.0781 98.0156 60.9375C98.6016 60.4922 99.3047 60.0469 100.055 59.6953C100.5 59.4844 100.945 59.2969 101.391 59.1562C101.414 59.1562 101.414 59.1562 101.437 59.1328C102.234 58.8516 103.078 58.6641 103.992 58.5469C104.039 58.5469 104.062 58.5469 104.109 58.5234C104.133 58.5234 104.156 58.5234 104.18 58.5234C109.383 57.8906 113.648 53.7187 114.352 48.5859C114.797 45.3281 113.953 42.1641 111.961 39.6563C110.977 38.4141 109.711 37.3594 108.328 36.6094C107.93 36.375 107.531 36.1875 107.156 36.0469C106.125 35.6484 105.563 34.5469 105.773 33.4687C105.961 32.5547 106.008 31.6172 105.938 30.6562C105.82 28.6875 105.094 26.8359 103.852 25.2656C102.188 23.1328 99.7266 21.75 97.1016 21.4687C93.9844 21.1406 91.0547 22.1719 88.875 24.3984C87.8672 25.4297 85.9219 25.1484 85.2422 23.8828C84.9609 23.3672 84.6328 22.8516 84.2109 22.3125C82.1953 19.7344 79.1484 18.2578 75.8438 18.2578C72.0469 18.2578 68.5313 20.2969 66.6328 23.5781C66.1172 24.4688 65.0859 24.8906 64.1016 24.6328C63.5391 24.4922 63 24.3984 62.4375 24.3984C57.8672 24.2344 53.7891 27.9375 53.5547 32.4844C53.5078 33.9141 53.7656 35.2734 54.3516 36.4688C54.7266 37.2188 54.6328 38.1094 54.1406 38.7891C53.6484 39.4687 52.8047 39.8203 51.9844 39.7031C51.6328 39.6563 51.2812 39.6328 50.9062 39.6094C50.8594 39.6094 50.8359 39.6094 50.8125 39.6094C48.5625 39.6094 46.3359 40.5469 44.6016 42.2344C42.8438 43.9688 41.8828 46.2187 41.8828 48.5859C41.9063 51.0703 42.9609 53.4844 44.7891 55.1484C46.4531 56.6953 48.5859 57.5156 50.8359 57.5156C51.375 57.5391 54.0703 57.4687 69.9375 56.4141C73.7812 56.1797 77.3906 56.7188 80.6484 58.0547C83.6953 59.2969 86.1328 61.0781 87.9141 63.3281C90.3984 66.5156 91.0078 69.9141 91.1016 72.1875Z" fill="#3BBEEE"/>
<path d="M97.031 40.7343C96.5623 40.7343 96.0701 40.5937 95.6717 40.2655C94.6638 39.5155 94.4764 38.0858 95.2264 37.078C100.828 29.6952 108.281 31.6405 108.586 31.7343C109.804 32.0624 110.508 33.328 110.179 34.5233C109.851 35.7187 108.609 36.4452 107.39 36.1171C107.156 36.0702 102.515 34.9687 98.8592 39.8202C98.3904 40.4296 97.7107 40.7343 97.031 40.7343Z" fill="#3BBEEE"/>
<path d="M78.1404 42.117C78.0936 42.117 78.0701 42.117 78.0232 42.117C76.7811 42.0702 75.7967 40.992 75.867 39.7499C75.9842 37.453 75.492 35.7889 74.4373 34.7811C72.8904 33.328 70.3592 33.5624 70.3357 33.5858C69.0936 33.7264 67.9686 32.8358 67.8279 31.5936C67.6873 30.3514 68.5545 29.2264 69.7967 29.0624C70.2654 28.992 74.4139 28.5702 77.5076 31.4295C79.5936 33.3749 80.5779 36.2342 80.4139 39.9608C80.367 41.1561 79.3592 42.117 78.1404 42.117Z" fill="#3BBEEE"/>
<path d="M102.914 63.1408C97.8283 63.1408 89.9533 61.2658 87.9846 53.8127C87.6565 52.594 88.383 51.3518 89.6018 51.0471C90.8205 50.719 92.0627 51.4455 92.3674 52.6643C94.1252 59.344 104.063 58.5471 104.18 58.5471C105.446 58.4299 106.524 59.3674 106.641 60.6096C106.758 61.8518 105.844 62.9533 104.602 63.0705C104.086 63.1174 103.524 63.1408 102.914 63.1408Z" fill="#3BBEEE"/>
</g>
<defs>
<clipPath id="clip0_41_65">
<rect width="150" height="150" fill="white"/>
</clipPath>
</defs>
</svg>
