<svg width="150" height="150" viewBox="0 0 150 150" fill="none" xmlns="http://www.w3.org/2000/svg">
<g clip-path="url(#clip0_13_19)">
<path d="M123.914 150H66.8203C65.5547 150 64.5469 148.992 64.5469 147.727V126.516C52.1016 128.602 43.0781 127.641 37.7578 123.633C36.0937 122.367 34.8047 120.82 33.8906 119.016C33.1406 117.516 32.6719 115.852 32.4844 114.07C32.2266 111.469 32.6016 109.102 32.9531 107.602L28.9219 104.602C28.2422 104.109 27.8437 103.242 27.9609 102.422C28.0781 101.602 28.5937 100.852 29.3672 100.57L34.7344 98.6953L30 97.8984C29.4141 97.8516 28.8281 97.5938 28.3828 97.1953C27.7734 96.6328 27.4219 95.8828 27.4219 95.0859V86.5312H20.4375C19.4766 86.5312 18.5625 86.1797 17.8594 85.5234C16.6406 84.375 16.2891 82.5938 16.9687 81.0703L27.2344 58.7578C26.7656 57.4453 26.3906 56.0859 26.0625 54.7031C23.2266 42.4219 27.0469 28.8516 36.2812 18.3984C56.8359 -4.85156 82.2656 -1.14844 95.6016 3.11719C119.812 10.8516 135.258 34.5469 133.172 60.75C131.508 81.4219 124.758 92.7422 122.812 95.625L126.164 147.539C126.211 148.172 125.977 148.781 125.555 149.25C125.133 149.742 124.523 150 123.914 150ZM69.0937 145.453H121.5L118.242 95.1562C118.195 94.5937 118.383 94.0547 118.711 93.6094C118.781 93.5156 126.891 82.6875 128.648 60.3984C130.57 36.3516 116.414 14.5781 94.2422 7.5C81.9609 3.5625 58.5469 0.164064 39.7031 21.4688C31.4297 30.8203 28.0078 42.8672 30.5156 53.7422C30.8437 55.2422 31.2891 56.7188 31.8281 58.1016C32.0391 58.6641 32.0391 59.3203 31.7812 59.8594L21.5625 82.0313H28.6172C29.9531 82.0313 31.1719 82.8281 31.7109 84.0469C31.7578 84.1641 31.8047 84.3047 31.8281 84.4219C31.9453 84.7734 31.9922 85.1016 31.9922 85.4062V93.6797L44.25 95.7188C45.2812 95.8828 46.0547 96.7266 46.1484 97.7813C46.2422 98.8125 45.6094 99.7734 44.625 100.125L34.9687 103.477L36.7266 104.789C37.6172 105.398 38.0156 106.57 37.6875 107.648C37.5234 108.188 36.7266 110.766 37.0312 113.648C37.1484 114.891 37.4766 116.016 37.9922 117.023C38.5781 118.219 39.4219 119.203 40.5234 120.023C45.0469 123.422 53.9297 123.961 66.2109 121.617C66.8672 121.5 67.6641 121.641 68.2031 122.063C68.7422 122.484 69.1406 123.117 69.1406 123.797V145.453H69.0937ZM33.9844 108.398C34.0078 108.422 34.0312 108.445 34.0547 108.445L33.9844 108.398Z" fill="#D50000"/>
<path d="M59.5781 47.5078C58.4062 47.5078 57.3984 46.5937 57.3047 45.4219C56.9062 40.3594 52.5469 39.7969 52.0547 39.75C50.8125 39.6328 49.8984 38.5312 49.9922 37.2891C50.1094 36.0469 51.2109 35.1328 52.4297 35.2266C55.4297 35.4609 61.2656 37.8047 61.8281 45.0703C61.9219 46.3125 60.9844 47.4141 59.7422 47.5078C59.6953 47.5078 59.6484 47.5078 59.5781 47.5078Z" fill="#FF5252"/>
<path d="M95.9297 76.7344H88.7344C88.0547 76.7344 87.4219 76.4297 86.9766 75.9141C86.5547 75.3984 86.3672 74.7188 86.4844 74.0391C86.5078 73.875 87.1875 69.7734 84.3281 66.1641C83.0391 64.5234 81.2109 63.2344 78.9141 62.2734C76.2891 61.1953 73.3594 60.7734 70.2187 60.9609C52.2891 62.1328 51.1641 62.0859 50.7187 62.0625C47.4141 62.0625 44.1797 60.7969 41.6953 58.4766C38.9531 55.9453 37.3594 52.3359 37.3359 48.5859C37.3359 44.9766 38.7891 41.5781 41.3906 39C43.5703 36.8672 46.2891 35.5313 49.1953 35.1563C49.0312 34.2188 48.9609 33.2578 49.0078 32.25C49.3359 25.2422 55.5938 19.6172 62.5781 19.8047C62.9063 19.8047 63.2344 19.8516 63.5859 19.875C66.4219 16.0078 70.9687 13.6641 75.8203 13.6641C80.4844 13.6641 84.8203 15.75 87.7031 19.4062C90.5391 17.4375 94.0078 16.5234 97.5703 16.9219C101.414 17.3437 105 19.3594 107.414 22.4531C109.219 24.75 110.25 27.4922 110.437 30.3281C110.508 31.0781 110.508 31.8281 110.437 32.5781C110.461 32.5781 110.484 32.6016 110.484 32.6016C112.359 33.6094 114.094 35.0625 115.477 36.7969C118.242 40.2891 119.438 44.6953 118.828 49.1719C117.844 56.3437 111.891 62.1562 104.648 63.0234C104.602 63.0234 104.555 63.0469 104.508 63.0469C103.898 63.1172 103.336 63.2578 102.82 63.4453C102.75 63.4687 102.703 63.4922 102.633 63.5156C102.422 63.5859 102.187 63.6797 101.977 63.7969C101.555 64.0078 101.109 64.2656 100.758 64.5469C100.711 64.5938 100.57 64.7109 100.523 64.7578C99.2344 65.8359 98.4609 67.2656 98.2734 68.9062C98.1094 70.4062 98.0859 72.2109 98.1797 74.3906C98.2031 75 97.9687 75.6094 97.5469 76.0547C97.1484 76.5 96.5625 76.7344 95.9297 76.7344ZM91.1016 72.1875H93.6094C93.6094 70.7812 93.6563 69.5391 93.7969 68.4141C94.0781 65.625 95.4609 63.0937 97.6406 61.2656C97.6641 61.2187 97.8516 61.0781 98.0156 60.9375C98.6016 60.4922 99.3047 60.0469 100.055 59.6953C100.5 59.4844 100.945 59.2969 101.391 59.1562C101.414 59.1562 101.414 59.1562 101.437 59.1328C102.234 58.8516 103.078 58.6641 103.992 58.5469C104.039 58.5469 104.062 58.5469 104.109 58.5234C104.133 58.5234 104.156 58.5234 104.18 58.5234C109.383 57.8906 113.648 53.7187 114.352 48.5859C114.797 45.3281 113.953 42.1641 111.961 39.6563C110.977 38.4141 109.711 37.3594 108.328 36.6094C107.93 36.375 107.531 36.1875 107.156 36.0469C106.125 35.6484 105.563 34.5469 105.773 33.4687C105.961 32.5547 106.008 31.6172 105.938 30.6562C105.82 28.6875 105.094 26.8359 103.852 25.2656C102.188 23.1328 99.7266 21.75 97.1016 21.4687C93.9844 21.1406 91.0547 22.1719 88.875 24.3984C87.8672 25.4297 85.9219 25.1484 85.2422 23.8828C84.9609 23.3672 84.6328 22.8516 84.2109 22.3125C82.1953 19.7344 79.1484 18.2578 75.8438 18.2578C72.0469 18.2578 68.5313 20.2969 66.6328 23.5781C66.1172 24.4688 65.0859 24.8906 64.1016 24.6328C63.5391 24.4922 63 24.3984 62.4375 24.3984C57.8672 24.2344 53.7891 27.9375 53.5547 32.4844C53.5078 33.9141 53.7656 35.2734 54.3516 36.4688C54.7266 37.2188 54.6328 38.1094 54.1406 38.7891C53.6484 39.4687 52.8047 39.8203 51.9844 39.7031C51.6328 39.6563 51.2812 39.6328 50.9062 39.6094C50.8594 39.6094 50.8359 39.6094 50.8125 39.6094C48.5625 39.6094 46.3359 40.5469 44.6016 42.2344C42.8438 43.9688 41.8828 46.2187 41.8828 48.5859C41.9063 51.0703 42.9609 53.4844 44.7891 55.1484C46.4531 56.6953 48.5859 57.5156 50.8359 57.5156C51.375 57.5391 54.0703 57.4687 69.9375 56.4141C73.7812 56.1797 77.3906 56.7188 80.6484 58.0547C83.6953 59.2969 86.1328 61.0781 87.9141 63.3281C90.3984 66.5156 91.0078 69.9141 91.1016 72.1875Z" fill="#FF5252"/>
<path d="M97.0313 40.7344C96.5625 40.7344 96.0703 40.5937 95.6719 40.2656C94.6641 39.5156 94.4766 38.0859 95.2266 37.0781C100.828 29.6953 108.281 31.6406 108.586 31.7344C109.805 32.0625 110.508 33.3281 110.18 34.5234C109.852 35.7187 108.609 36.4453 107.391 36.1172C107.156 36.0703 102.516 34.9687 98.8594 39.8203C98.3906 40.4297 97.7109 40.7344 97.0313 40.7344Z" fill="#FF5252"/>
<path d="M78.1406 42.1172C78.0937 42.1172 78.0703 42.1172 78.0234 42.1172C76.7813 42.0703 75.7969 40.9922 75.8672 39.75C75.9844 37.4531 75.4922 35.789 74.4375 34.7812C72.8906 33.3281 70.3594 33.5625 70.3359 33.5859C69.0937 33.7265 67.9688 32.8359 67.8281 31.5937C67.6875 30.3515 68.5547 29.2265 69.7969 29.0625C70.2656 28.9922 74.4141 28.5703 77.5078 31.4297C79.5937 33.375 80.5781 36.2344 80.4141 39.9609C80.3672 41.1562 79.3594 42.1172 78.1406 42.1172Z" fill="#FF5252"/>
<path d="M102.914 63.1406C97.8281 63.1406 89.9531 61.2656 87.9844 53.8125C87.6562 52.5937 88.3828 51.3516 89.6016 51.0469C90.8203 50.7187 92.0625 51.4453 92.3672 52.6641C94.125 59.3437 104.062 58.5469 104.18 58.5469C105.445 58.4297 106.523 59.3672 106.641 60.6094C106.758 61.8516 105.844 62.9531 104.602 63.0703C104.086 63.1172 103.523 63.1406 102.914 63.1406Z" fill="#FF5252"/>
</g>
<defs>
<clipPath id="clip0_13_19">
<rect width="150" height="150" fill="white"/>
</clipPath>
</defs>
</svg>
