<svg width="24" height="24" viewBox="0 0 24 24" fill="none" xmlns="http://www.w3.org/2000/svg">
<path d="M16.8021 14.2664C16.8021 15.1425 17.051 15.4919 17.7021 15.4919C19.1531 15.4919 20.0771 13.6406 20.0771 10.5617C20.0771 5.85586 16.6521 3.60305 12.376 3.60305C7.97708 3.60305 3.97604 6.55674 3.97604 12.1387C3.97604 17.4704 7.47604 20.374 12.851 20.374C14.676 20.374 15.901 20.1738 17.775 19.548L18.1771 21.224C16.3271 21.8258 14.35 22 12.826 22C5.77604 22 2 18.1201 2 12.1377C2 6.10513 6.37604 2 12.401 2C18.676 2 22 5.75469 22 10.3604C22 14.2653 20.776 17.2441 16.926 17.2441C15.175 17.2441 14.026 16.5432 13.876 14.9902C13.426 16.7174 12.226 17.2441 10.6 17.2441C8.425 17.2441 6.6 15.5659 6.6 12.1877C6.6 8.78348 8.20104 6.68085 11.076 6.68085C12.601 6.68085 13.551 7.2816 13.974 8.23279L14.7 6.90613H16.8V14.2664H16.8021ZM13.7281 10.9622C13.7281 9.58657 12.7021 9.0098 11.8521 9.0098C10.9271 9.0098 9.90313 9.7597 9.90313 11.9635C9.90313 13.7157 10.6781 14.6919 11.8521 14.6919C12.6771 14.6919 13.7281 14.1662 13.7281 12.7144V10.9622Z" fill="black"/>
</svg>
