<svg width="24" height="24" viewBox="0 0 24 24" fill="none" xmlns="http://www.w3.org/2000/svg">
<path d="M22 12C22 17.5226 17.5226 22 12 22C6.47732 22 2 17.5226 2 12C2 6.47732 6.47732 2 12 2C17.5226 2 22 6.47732 22 12Z" fill="#0A7BBA"/>
<path d="M17.9744 12.8042V16.9273H15.5843V13.081C15.5843 12.1149 15.2396 11.4551 14.3735 11.4551C13.7138 11.4551 13.3212 11.8999 13.148 12.3299C13.0845 12.4831 13.0688 12.6963 13.0688 12.9122V16.9273H10.6778C10.6778 16.9273 10.71 10.4124 10.6778 9.73797H13.0688V10.7571C13.0645 10.7649 13.0575 10.7726 13.0531 10.7805H13.0688V10.7571C13.3865 10.268 13.9531 9.56901 15.223 9.56901C16.7959 9.56901 17.9744 10.5969 17.9744 12.8042ZM8.17808 6.27277C7.35988 6.27277 6.82548 6.80981 6.82548 7.51485C6.82548 8.20505 7.34424 8.75681 8.14676 8.75681H8.16156C8.9954 8.75681 9.51416 8.20509 9.51416 7.51485C9.49848 6.80985 8.9954 6.27277 8.17808 6.27277ZM6.96736 16.9273H9.3566V9.73797H6.96736V16.9273Z" fill="#F2F2F2"/>
</svg>
