<svg width="24" height="24" viewBox="0 0 24 24" fill="none" xmlns="http://www.w3.org/2000/svg">
<path d="M22 12C22 6.47715 17.5228 2 12 2C6.47715 2 2 6.47715 2 12C2 17.5228 6.47715 22 12 22C17.5228 22 22 17.5228 22 12Z" fill="#419FD9"/>
<path d="M22 12C22 6.47715 17.5228 2 12 2C6.47715 2 2 6.47715 2 12C2 17.5228 6.47715 22 12 22C17.5228 22 22 17.5228 22 12Z" fill="url(#paint0_linear_10_9)"/>
<path d="M6.75621 11.8744C9.70899 10.6044 11.678 9.76705 12.6632 9.36246C15.476 8.20739 16.0606 8.00673 16.4415 8.00006C16.5253 7.99867 16.7127 8.01917 16.834 8.11637C16.9365 8.19847 16.9647 8.30938 16.9782 8.38719C16.9917 8.46504 17.0085 8.64234 16.9951 8.78086C16.8427 10.3621 16.1831 14.1993 15.8475 15.9703C15.7056 16.7197 15.426 16.971 15.1553 16.9955C14.5671 17.049 14.1205 16.6118 13.5508 16.2431C12.6593 15.6662 12.1557 15.307 11.2903 14.744C10.2903 14.0934 10.9386 13.7358 11.5085 13.1514C11.6576 12.9985 14.2493 10.6711 14.2995 10.4601C14.3057 10.4336 14.3116 10.3352 14.2523 10.2832C14.1931 10.2313 14.1057 10.249 14.0426 10.2632C13.9532 10.2832 12.5291 11.2125 9.77017 13.0512C9.36592 13.3252 8.99979 13.4587 8.67173 13.4517C8.31009 13.444 7.61442 13.2499 7.09725 13.0839C6.46293 12.8803 5.95877 12.7727 6.00266 12.427C6.02553 12.2469 6.2767 12.0627 6.75621 11.8744Z" fill="white"/>
<defs>
<linearGradient id="paint0_linear_10_9" x1="12" y1="2" x2="12" y2="21.8517" gradientUnits="userSpaceOnUse">
<stop stop-color="#2AABEE"/>
<stop offset="1" stop-color="#229ED9"/>
</linearGradient>
</defs>
</svg>
